<?xml version="1.0" encoding="UTF-8"?>
<svg width="752pt" height="752pt" version="1.1" viewBox="0 0 752 752" xmlns="http://www.w3.org/2000/svg">
 <path d="m567.53 304.25c-12.066 0-21.848 9.7812-21.848 21.852v149.34c-1.3438 0.46484-2.6992 0.84766-4.0078 1.4805-0.38281 0.17578-20.902 9.9922-54.016 19.16-10.543-7.3945-23.934-10.688-37.57-8.0508-50.102 9.7188-98.719 9.8398-148.76 0.30859-13.496-2.543-26.738 0.69141-37.211 7.957-33.004-9.1562-53.449-19.008-54.055-19.305-1.2266-0.60547-2.4922-0.97266-3.75-1.4062l0.003906-149.5c0-12.062-9.7812-21.852-21.852-21.852-12.066 0-21.848 9.7852-21.848 21.852v178.44c0 1.0508 0.16016 2.043 0.30469 3.0508 0.45312 11.59 6.8945 22.598 18.016 28.125 1.8867 0.92969 27.367 13.395 68.039 24.457 6.8086 12.473 18.93 21.906 33.977 24.781 30.773 5.8477 61.664 8.8242 91.848 8.8242 30.883 0 62.512-3.1016 94.012-9.207 14.883-2.875 26.875-12.195 33.668-24.5 40.609-11.008 66.16-23.352 68.051-24.281 10.355-5.082 16.766-14.898 18.02-25.555 0.49219-1.8242 0.84766-3.7109 0.84766-5.6914l-0.003906-178.44c-0.007813-12.062-9.7969-21.84-21.867-21.84zm-330.13 10.918-0.003907 137.77c4.3477 1.6797 9.6328 3.6523 15.965 5.7539 16.941-8.582 36.746-11.5 55.676-7.918 45.598 8.6992 88.508 8.5898 134.3-0.29688 19.109-3.6953 38.867-0.78125 55.855 7.7695 5.8242-1.9453 10.77-3.7539 14.922-5.3594l0.082031-137.73c0-24.617 18.234-44.871 41.879-48.43l-0.007813-66.609c0-12.066-9.125-17.758-21.848-21.855 0 0-69.27-20.031-157.06-20.031-87.816 0-159.78 20.031-159.78 20.031-12.402 3.8555-21.852 9.7812-21.852 21.855v66.613c23.637 3.5586 41.871 23.816 41.871 48.434z"/>
</svg>
